<?xml version="1.0" standalone="no"?>
<!DOCTYPE svg PUBLIC "-//W3C//DTD SVG 20010904//EN"
 "http://www.w3.org/TR/2001/REC-SVG-20010904/DTD/svg10.dtd">
<svg version="1.0" xmlns="http://www.w3.org/2000/svg"
 width="400.000000pt" height="400.000000pt" viewBox="0 0 400.000000 400.000000"
 preserveAspectRatio="xMidYMid meet">
<metadata>
Created by potrace 1.14, written by Peter Selinger 2001-2017
</metadata>
<g transform="translate(0.000000,400.000000) scale(0.100000,-0.100000)"
fill="#000000" stroke="none">
<path d="M1848 3996 c-1 -2 -35 -6 -74 -9 -39 -4 -77 -9 -85 -11 -8 -3 -32 -7
-54 -10 -130 -17 -343 -88 -520 -175 -450 -222 -790 -591 -980 -1066 -36 -89
-84 -260 -104 -365 -6 -30 -13 -71 -17 -90 -15 -82 -11 -434 6 -550 34 -224
94 -420 182 -595 55 -109 76 -147 131 -230 192 -289 448 -517 766 -679 176
-90 409 -166 584 -191 27 -3 59 -9 70 -12 41 -9 391 -10 467 -1 152 18 449 91
485 118 6 4 28 13 50 20 22 7 90 38 150 69 600 308 1003 886 1082 1553 14 123
7 436 -12 528 -3 14 -8 41 -11 60 -24 152 -90 353 -173 523 -290 595 -876
1014 -1541 1103 -48 6 -396 15 -402 10z"/>
</g>
</svg>
